<svg xmlns="http://www.w3.org/2000/svg" xmlns:xlink="http://www.w3.org/1999/xlink" width="200" zoomAndPan="magnify" viewBox="0 0 150 112.499997" height="150" preserveAspectRatio="xMidYMid meet" version="1.0"><defs><g/><clipPath id="fc27a3ab09"><path d="M 59 31.46875 L 120 31.46875 L 120 42 L 59 42 Z M 59 31.46875 " clip-rule="nonzero"/></clipPath><clipPath id="1dde4e62c3"><path d="M 23.914062 38.269531 L 126.210938 38.269531 L 126.210938 50.578125 L 23.914062 50.578125 Z M 23.914062 38.269531 " clip-rule="nonzero"/></clipPath><clipPath id="ae2e4d978a"><path d="M 62.71875 42.117188 L 96.683594 42.117188 L 96.683594 53.121094 L 62.71875 53.121094 Z M 62.71875 42.117188 " clip-rule="nonzero"/></clipPath></defs><g fill="#f7f8fd" fill-opacity="1"><g transform="translate(18.794953, 70.164817)"><g><path d="M 8.644531 -10.261719 C 8.617188 -10.328125 8.589844 -10.414062 8.5625 -10.46875 C 8.335938 -11.199219 7.664062 -11.71875 6.890625 -11.71875 C 6.539062 -11.71875 6.203125 -11.621094 5.921875 -11.425781 C 5.839844 -11.382812 5.769531 -11.328125 5.710938 -11.285156 C 5.5 -11.101562 5.292969 -10.765625 5.09375 -10.261719 L 1.179688 -0.535156 C 1.136719 -0.40625 1.121094 -0.28125 1.152344 -0.195312 C 1.164062 -0.113281 1.234375 0.015625 1.460938 0.015625 L 3.003906 0.015625 C 3.1875 0.015625 3.328125 -0.0976562 3.398438 -0.28125 L 4.195312 -2.289062 L 7.269531 -2.289062 C 7.425781 -2.289062 7.566406 -2.359375 7.636719 -2.484375 C 7.71875 -2.597656 7.734375 -2.75 7.691406 -2.890625 L 7.1875 -4.140625 C 7.117188 -4.308594 6.960938 -4.421875 6.777344 -4.421875 L 5.039062 -4.421875 L 6.835938 -8.96875 C 6.847656 -8.996094 6.863281 -9.011719 6.863281 -9.011719 L 6.917969 -9.011719 C 6.917969 -9.011719 6.917969 -9.011719 6.933594 -8.984375 L 10.414062 -0.292969 C 10.484375 -0.0976562 10.625 0.015625 10.820312 0.015625 L 12.324219 0.015625 C 12.546875 0.015625 12.605469 -0.125 12.632812 -0.195312 C 12.660156 -0.28125 12.644531 -0.40625 12.589844 -0.535156 Z M 8.644531 -10.261719 "/></g></g></g><g fill="#f7f8fd" fill-opacity="1"><g transform="translate(32.571933, 70.164817)"><g><path d="M 10.820312 -11.566406 L 9.53125 -11.566406 C 9.402344 -11.566406 9.136719 -11.523438 9.136719 -11.089844 L 9.136719 -4.167969 C 9.136719 -3.746094 9.109375 -3.382812 9.066406 -3.117188 C 9.023438 -2.847656 8.941406 -2.636719 8.84375 -2.484375 C 8.730469 -2.34375 8.605469 -2.246094 8.421875 -2.175781 C 8.238281 -2.121094 7.984375 -2.078125 7.691406 -2.078125 L 4.660156 -2.078125 C 4.363281 -2.078125 4.113281 -2.121094 3.929688 -2.175781 C 3.746094 -2.246094 3.621094 -2.34375 3.507812 -2.484375 C 3.410156 -2.636719 3.328125 -2.847656 3.269531 -3.117188 C 3.226562 -3.382812 3.199219 -3.746094 3.199219 -4.167969 L 3.199219 -11.089844 C 3.199219 -11.523438 2.933594 -11.566406 2.808594 -11.566406 L 1.53125 -11.566406 C 1.402344 -11.566406 1.121094 -11.523438 1.121094 -11.089844 L 1.121094 -4.394531 C 1.121094 -3.605469 1.179688 -2.933594 1.304688 -2.386719 C 1.429688 -1.824219 1.640625 -1.363281 1.921875 -1.011719 C 2.191406 -0.644531 2.570312 -0.394531 3.003906 -0.222656 C 3.4375 -0.0703125 3.972656 0 4.589844 0 L 7.746094 0 C 8.363281 0 8.898438 -0.0703125 9.332031 -0.222656 C 9.78125 -0.394531 10.148438 -0.644531 10.429688 -1.011719 C 10.710938 -1.363281 10.90625 -1.824219 11.03125 -2.386719 C 11.15625 -2.933594 11.214844 -3.605469 11.214844 -4.394531 L 11.214844 -11.089844 C 11.214844 -11.523438 10.949219 -11.566406 10.820312 -11.566406 Z M 10.820312 -11.566406 "/></g></g></g><g fill="#f7f8fd" fill-opacity="1"><g transform="translate(44.903827, 70.164817)"><g><path d="M 10.820312 -11.566406 L 1.53125 -11.566406 C 1.402344 -11.566406 1.121094 -11.523438 1.121094 -11.089844 L 1.121094 -9.992188 C 1.121094 -9.53125 1.402344 -9.488281 1.53125 -9.488281 L 5.136719 -9.488281 L 5.136719 -0.476562 C 5.136719 -0.0429688 5.417969 0 5.53125 0 L 6.820312 0 C 6.949219 0 7.214844 -0.0429688 7.214844 -0.476562 L 7.214844 -9.488281 L 10.820312 -9.488281 C 10.949219 -9.488281 11.226562 -9.53125 11.226562 -9.992188 L 11.226562 -11.089844 C 11.226562 -11.523438 10.949219 -11.566406 10.820312 -11.566406 Z M 10.820312 -11.566406 "/></g></g></g><g fill="#f7f8fd" fill-opacity="1"><g transform="translate(57.249752, 70.164817)"><g><path d="M 10.679688 -10.539062 C 10.398438 -10.890625 10.035156 -11.15625 9.585938 -11.328125 C 9.152344 -11.480469 8.617188 -11.566406 8 -11.566406 L 4.574219 -11.566406 C 3.957031 -11.566406 3.4375 -11.480469 3.003906 -11.328125 C 2.554688 -11.15625 2.191406 -10.890625 1.910156 -10.539062 C 1.640625 -10.191406 1.429688 -9.726562 1.304688 -9.164062 C 1.179688 -8.617188 1.121094 -7.957031 1.121094 -7.171875 L 1.121094 -4.394531 C 1.121094 -3.605469 1.179688 -2.933594 1.304688 -2.386719 C 1.429688 -1.824219 1.640625 -1.363281 1.910156 -1.011719 C 2.191406 -0.644531 2.554688 -0.378906 3.003906 -0.222656 C 3.425781 -0.0703125 3.957031 0.015625 4.574219 0.015625 L 8 0.015625 C 8.617188 0.015625 9.152344 -0.0703125 9.585938 -0.222656 C 10.035156 -0.378906 10.398438 -0.644531 10.679688 -0.996094 C 10.960938 -1.363281 11.15625 -1.824219 11.285156 -2.386719 C 11.398438 -2.933594 11.46875 -3.605469 11.46875 -4.394531 L 11.46875 -7.171875 C 11.46875 -7.945312 11.398438 -8.617188 11.285156 -9.164062 C 11.15625 -9.726562 10.960938 -10.191406 10.679688 -10.539062 Z M 9.375 -7.410156 L 9.375 -4.140625 C 9.375 -3.734375 9.363281 -3.382812 9.304688 -3.101562 C 9.261719 -2.847656 9.179688 -2.625 9.066406 -2.484375 C 8.96875 -2.328125 8.828125 -2.230469 8.644531 -2.175781 C 8.464844 -2.105469 8.226562 -2.078125 7.929688 -2.078125 L 4.644531 -2.078125 C 4.351562 -2.078125 4.113281 -2.105469 3.929688 -2.175781 C 3.746094 -2.230469 3.605469 -2.328125 3.507812 -2.484375 C 3.398438 -2.625 3.328125 -2.847656 3.269531 -3.101562 C 3.226562 -3.382812 3.199219 -3.734375 3.199219 -4.140625 L 3.199219 -7.410156 C 3.199219 -7.816406 3.226562 -8.167969 3.269531 -8.449219 C 3.328125 -8.714844 3.398438 -8.925781 3.507812 -9.082031 C 3.605469 -9.222656 3.746094 -9.320312 3.929688 -9.390625 C 4.113281 -9.445312 4.351562 -9.488281 4.644531 -9.488281 L 7.929688 -9.488281 C 8.226562 -9.488281 8.464844 -9.445312 8.644531 -9.390625 C 8.828125 -9.320312 8.96875 -9.222656 9.066406 -9.082031 C 9.179688 -8.925781 9.261719 -8.714844 9.304688 -8.449219 C 9.363281 -8.167969 9.375 -7.816406 9.375 -7.410156 Z M 9.375 -7.410156 "/></g></g></g><g fill="#f7f8fd" fill-opacity="1"><g transform="translate(69.834184, 70.164817)"><g><path d="M 12.84375 -11.566406 L 11.578125 -11.566406 C 11.382812 -11.566406 11.226562 -11.550781 11.089844 -11.507812 C 10.949219 -11.46875 10.820312 -11.398438 10.710938 -11.296875 C 10.609375 -11.1875 10.511719 -11.058594 10.429688 -10.890625 C 10.34375 -10.722656 10.273438 -10.511719 10.191406 -10.246094 L 7.707031 -4.042969 C 7.691406 -3.984375 7.675781 -3.984375 7.664062 -3.984375 L 7.523438 -3.984375 C 7.523438 -3.984375 7.496094 -3.984375 7.480469 -4.042969 L 5.011719 -10.246094 C 4.925781 -10.511719 4.84375 -10.722656 4.773438 -10.890625 C 4.6875 -11.058594 4.589844 -11.1875 4.492188 -11.296875 C 4.378906 -11.398438 4.238281 -11.46875 4.097656 -11.507812 C 3.957031 -11.550781 3.789062 -11.566406 3.605469 -11.566406 L 2.316406 -11.566406 C 1.839844 -11.566406 1.515625 -11.410156 1.347656 -11.117188 C 1.191406 -10.847656 1.121094 -10.398438 1.121094 -9.753906 L 1.121094 -0.476562 C 1.121094 -0.0429688 1.402344 0.015625 1.53125 0.015625 L 2.738281 0.015625 C 2.863281 0.015625 3.128906 -0.0429688 3.128906 -0.476562 L 3.128906 -8.914062 C 3.128906 -8.925781 3.128906 -8.941406 3.128906 -8.941406 L 3.199219 -8.941406 C 3.214844 -8.941406 3.226562 -8.941406 3.242188 -8.898438 L 5.640625 -2.960938 C 5.742188 -2.667969 5.839844 -2.414062 5.9375 -2.203125 C 6.050781 -1.992188 6.160156 -1.824219 6.273438 -1.683594 C 6.414062 -1.542969 6.554688 -1.429688 6.722656 -1.375 C 6.890625 -1.320312 7.074219 -1.292969 7.285156 -1.292969 L 7.859375 -1.292969 C 8.070312 -1.292969 8.265625 -1.320312 8.421875 -1.375 C 8.589844 -1.429688 8.742188 -1.542969 8.871094 -1.683594 C 8.984375 -1.824219 9.109375 -1.992188 9.207031 -2.203125 C 9.304688 -2.414062 9.402344 -2.667969 9.5 -2.960938 L 11.917969 -8.914062 C 11.917969 -8.941406 11.929688 -8.941406 11.945312 -8.941406 L 12.015625 -8.941406 C 12.015625 -8.941406 12.015625 -8.925781 12.015625 -8.914062 L 12.015625 -0.476562 C 12.015625 -0.0429688 12.296875 0.015625 12.40625 0.015625 L 13.613281 0.015625 C 13.742188 0.015625 14.019531 -0.0429688 14.019531 -0.476562 L 14.019531 -9.753906 C 14.019531 -10.398438 13.949219 -10.847656 13.796875 -11.117188 C 13.628906 -11.410156 13.304688 -11.566406 12.84375 -11.566406 Z M 12.84375 -11.566406 "/></g></g></g><g fill="#f7f8fd" fill-opacity="1"><g transform="translate(84.972066, 70.164817)"><g><path d="M 9.558594 -2.511719 L 4.617188 -2.511719 C 4.324219 -2.511719 4.085938 -2.554688 3.886719 -2.609375 C 3.707031 -2.679688 3.578125 -2.777344 3.464844 -2.917969 C 3.355469 -3.074219 3.269531 -3.285156 3.226562 -3.550781 C 3.214844 -3.621094 3.214844 -3.71875 3.199219 -3.789062 C 3.199219 -3.789062 3.214844 -4.800781 3.226562 -4.800781 L 9.5 -4.800781 C 9.613281 -4.800781 9.894531 -4.855469 9.894531 -5.292969 L 9.894531 -6.398438 C 9.894531 -6.835938 9.613281 -6.878906 9.5 -6.878906 L 2.257812 -6.863281 C 1.851562 -6.835938 1.5 -6.625 1.304688 -6.273438 C 1.234375 -6.160156 1.179688 -6.050781 1.152344 -5.921875 L 1.121094 -4.15625 L 1.121094 -4.085938 C 1.136719 -3.425781 1.207031 -2.863281 1.304688 -2.398438 C 1.429688 -1.839844 1.640625 -1.375 1.910156 -1.023438 C 2.191406 -0.660156 2.554688 -0.40625 3.003906 -0.253906 C 3.4375 -0.0859375 3.957031 -0.015625 4.574219 -0.015625 L 9.558594 -0.015625 C 9.683594 -0.015625 9.964844 -0.0546875 9.964844 -0.492188 L 9.964844 -2.035156 C 9.964844 -2.46875 9.683594 -2.511719 9.558594 -2.511719 Z M 9.570312 -11.59375 L 1.5 -11.59375 C 1.390625 -11.59375 1.121094 -11.535156 1.121094 -11.089844 L 1.121094 -9.992188 C 1.121094 -9.558594 1.390625 -9.515625 1.5 -9.515625 L 9.570312 -9.5 C 9.683594 -9.5 9.964844 -9.558594 9.964844 -9.992188 L 9.964844 -11.101562 C 9.964844 -11.535156 9.683594 -11.59375 9.570312 -11.59375 Z M 9.570312 -11.59375 "/></g></g></g><g fill="#f7f8fd" fill-opacity="1"><g transform="translate(96.055303, 70.164817)"><g><path d="M 10.695312 -8.210938 C 10.695312 -8.195312 10.695312 -8.183594 10.695312 -8.167969 C 10.695312 -8.15625 10.695312 -8.140625 10.695312 -8.125 Z M 10.960938 -0.605469 L 8.503906 -4.8125 C 9.191406 -4.898438 9.726562 -5.191406 10.078125 -5.671875 C 10.46875 -6.246094 10.679688 -7.074219 10.695312 -8.167969 C 10.679688 -9.261719 10.46875 -10.089844 10.078125 -10.667969 C 9.65625 -11.269531 8.953125 -11.566406 8 -11.566406 L 1.53125 -11.566406 C 1.402344 -11.566406 1.121094 -11.523438 1.121094 -11.074219 L 1.121094 -9.964844 C 1.121094 -9.53125 1.402344 -9.488281 1.53125 -9.488281 L 7.636719 -9.488281 C 8 -9.488281 8.238281 -9.390625 8.378906 -9.179688 C 8.535156 -8.96875 8.605469 -8.632812 8.605469 -8.167969 C 8.605469 -7.707031 8.535156 -7.367188 8.378906 -7.15625 C 8.238281 -6.949219 8 -6.847656 7.636719 -6.847656 L 1.53125 -6.847656 C 1.402344 -6.847656 1.121094 -6.808594 1.121094 -6.371094 L 1.121094 -0.476562 C 1.121094 -0.0429688 1.402344 0.015625 1.53125 0.015625 L 2.808594 0.015625 C 2.933594 0.015625 3.199219 -0.0429688 3.199219 -0.476562 L 3.199219 -4.773438 L 6.160156 -4.773438 L 8.703125 -0.265625 C 8.757812 -0.183594 8.800781 -0.113281 8.855469 -0.0703125 C 8.925781 -0.015625 9.023438 0.015625 9.152344 0.015625 L 10.695312 0.015625 C 10.863281 0.015625 10.988281 -0.0976562 11.019531 -0.265625 C 11.03125 -0.40625 11.019531 -0.519531 10.960938 -0.605469 Z M 10.960938 -0.605469 "/></g></g></g><g fill="#f7f8fd" fill-opacity="1"><g transform="translate(108.20481, 70.164817)"><g><path d="M 9.699219 -11.566406 L 4.589844 -11.566406 C 3.972656 -11.566406 3.4375 -11.480469 3.003906 -11.328125 C 2.554688 -11.15625 2.191406 -10.890625 1.921875 -10.539062 C 1.640625 -10.191406 1.429688 -9.726562 1.304688 -9.164062 C 1.179688 -8.617188 1.121094 -7.945312 1.121094 -7.171875 L 1.121094 -4.394531 C 1.121094 -3.605469 1.179688 -2.933594 1.304688 -2.371094 C 1.429688 -1.824219 1.640625 -1.363281 1.921875 -0.996094 C 2.203125 -0.644531 2.570312 -0.378906 3.003906 -0.222656 C 3.4375 -0.0703125 3.972656 0.015625 4.589844 0.015625 L 9.699219 0.015625 C 9.8125 0.015625 10.089844 -0.0429688 10.089844 -0.476562 L 10.089844 -1.585938 C 10.089844 -2.019531 9.8125 -2.078125 9.699219 -2.078125 L 4.660156 -2.078125 C 4.363281 -2.078125 4.113281 -2.105469 3.929688 -2.175781 C 3.746094 -2.230469 3.621094 -2.328125 3.507812 -2.484375 C 3.398438 -2.625 3.328125 -2.835938 3.269531 -3.101562 C 3.226562 -3.382812 3.199219 -3.734375 3.199219 -4.15625 L 3.199219 -7.425781 C 3.199219 -7.847656 3.226562 -8.195312 3.269531 -8.464844 C 3.328125 -8.730469 3.398438 -8.925781 3.507812 -9.082031 C 3.621094 -9.234375 3.746094 -9.332031 3.929688 -9.390625 C 4.113281 -9.460938 4.363281 -9.488281 4.660156 -9.488281 L 9.699219 -9.488281 C 9.8125 -9.488281 10.089844 -9.542969 10.089844 -9.992188 L 10.089844 -11.074219 C 10.089844 -11.507812 9.8125 -11.566406 9.699219 -11.566406 Z M 9.699219 -11.566406 "/></g></g></g><g fill="#f7f8fd" fill-opacity="1"><g transform="translate(119.414312, 70.164817)"><g><path d="M 9.558594 -2.511719 L 4.617188 -2.511719 C 4.324219 -2.511719 4.085938 -2.554688 3.886719 -2.609375 C 3.707031 -2.679688 3.578125 -2.777344 3.464844 -2.917969 C 3.355469 -3.074219 3.269531 -3.285156 3.226562 -3.550781 C 3.214844 -3.621094 3.214844 -3.71875 3.199219 -3.789062 C 3.199219 -3.789062 3.214844 -4.800781 3.226562 -4.800781 L 9.5 -4.800781 C 9.613281 -4.800781 9.894531 -4.855469 9.894531 -5.292969 L 9.894531 -6.398438 C 9.894531 -6.835938 9.613281 -6.878906 9.5 -6.878906 L 2.257812 -6.863281 C 1.851562 -6.835938 1.5 -6.625 1.304688 -6.273438 C 1.234375 -6.160156 1.179688 -6.050781 1.152344 -5.921875 L 1.121094 -4.15625 L 1.121094 -4.085938 C 1.136719 -3.425781 1.207031 -2.863281 1.304688 -2.398438 C 1.429688 -1.839844 1.640625 -1.375 1.910156 -1.023438 C 2.191406 -0.660156 2.554688 -0.40625 3.003906 -0.253906 C 3.4375 -0.0859375 3.957031 -0.015625 4.574219 -0.015625 L 9.558594 -0.015625 C 9.683594 -0.015625 9.964844 -0.0546875 9.964844 -0.492188 L 9.964844 -2.035156 C 9.964844 -2.46875 9.683594 -2.511719 9.558594 -2.511719 Z M 9.570312 -11.59375 L 1.5 -11.59375 C 1.390625 -11.59375 1.121094 -11.535156 1.121094 -11.089844 L 1.121094 -9.992188 C 1.121094 -9.558594 1.390625 -9.515625 1.5 -9.515625 L 9.570312 -9.5 C 9.683594 -9.5 9.964844 -9.558594 9.964844 -9.992188 L 9.964844 -11.101562 C 9.964844 -11.535156 9.683594 -11.59375 9.570312 -11.59375 Z M 9.570312 -11.59375 "/></g></g></g><g fill="#f7f8fd" fill-opacity="1"><g transform="translate(39.748996, 78.601148)"><g><path d="M 3.464844 -2.113281 L 3.933594 -2.113281 C 3.988281 -2.113281 4.039062 -2.164062 4.039062 -2.21875 L 4.039062 -2.648438 C 4.039062 -2.71875 4.011719 -2.78125 3.960938 -2.832031 L 3.34375 -3.464844 C 3.289062 -3.519531 3.222656 -3.546875 3.132812 -3.546875 L 1.132812 -3.546875 C 1.046875 -3.546875 0.992188 -3.527344 0.925781 -3.464844 L 0.296875 -2.832031 C 0.253906 -2.789062 0.210938 -2.71875 0.210938 -2.648438 L 0.210938 -0.863281 C 0.210938 -0.792969 0.253906 -0.722656 0.296875 -0.679688 L 0.925781 -0.0507812 C 0.992188 0.015625 1.046875 0.0351562 1.132812 0.0351562 L 3.132812 0.0351562 C 3.222656 0.0351562 3.289062 0.0078125 3.34375 -0.0507812 L 3.960938 -0.679688 C 4.011719 -0.730469 4.039062 -0.792969 4.039062 -0.863281 L 4.039062 -1.292969 C 4.039062 -1.347656 3.988281 -1.398438 3.933594 -1.398438 L 3.464844 -1.398438 C 3.40625 -1.398438 3.359375 -1.347656 3.359375 -1.292969 L 3.359375 -1.046875 C 3.359375 -0.996094 3.351562 -0.960938 3.308594 -0.925781 L 3.082031 -0.714844 C 3.046875 -0.679688 3.019531 -0.660156 2.972656 -0.660156 L 1.328125 -0.660156 C 1.292969 -0.660156 1.265625 -0.675781 1.222656 -0.714844 L 0.996094 -0.925781 C 0.960938 -0.960938 0.949219 -0.996094 0.949219 -1.046875 L 0.949219 -2.464844 C 0.949219 -2.515625 0.960938 -2.550781 0.996094 -2.585938 L 1.222656 -2.796875 C 1.265625 -2.835938 1.292969 -2.851562 1.328125 -2.851562 L 2.972656 -2.851562 C 3.019531 -2.851562 3.046875 -2.832031 3.082031 -2.796875 L 3.308594 -2.585938 C 3.351562 -2.550781 3.359375 -2.515625 3.359375 -2.464844 L 3.359375 -2.21875 C 3.359375 -2.164062 3.40625 -2.113281 3.464844 -2.113281 Z M 3.464844 -2.113281 "/></g></g></g><g fill="#f7f8fd" fill-opacity="1"><g transform="translate(45.402893, 78.601148)"><g><path d="M 3.960938 -2.796875 L 3.34375 -3.429688 C 3.289062 -3.484375 3.222656 -3.511719 3.132812 -3.511719 L 1.117188 -3.511719 C 1.027344 -3.511719 0.960938 -3.484375 0.90625 -3.429688 L 0.289062 -2.796875 C 0.238281 -2.746094 0.210938 -2.683594 0.210938 -2.613281 L 0.210938 -0.105469 C 0.210938 -0.0507812 0.261719 0 0.316406 0 L 0.785156 0 C 0.84375 0 0.890625 -0.0507812 0.890625 -0.105469 L 0.890625 -1.152344 L 3.359375 -1.152344 L 3.359375 -0.105469 C 3.359375 -0.0507812 3.40625 0 3.464844 0 L 3.933594 0 C 3.988281 0 4.039062 -0.0507812 4.039062 -0.105469 L 4.039062 -2.613281 C 4.039062 -2.683594 4.011719 -2.746094 3.960938 -2.796875 Z M 0.890625 -1.761719 L 0.890625 -2.429688 C 0.890625 -2.480469 0.90625 -2.515625 0.941406 -2.550781 L 1.167969 -2.761719 L 1.207031 -2.796875 C 1.222656 -2.808594 1.242188 -2.816406 1.277344 -2.816406 L 2.972656 -2.816406 C 3 -2.816406 3.019531 -2.808594 3.042969 -2.796875 L 3.082031 -2.761719 L 3.308594 -2.550781 C 3.34375 -2.515625 3.359375 -2.480469 3.359375 -2.429688 L 3.359375 -1.761719 Z M 0.890625 -1.761719 "/></g></g></g><g fill="#f7f8fd" fill-opacity="1"><g transform="translate(51.05679, 78.601148)"><g><path d="M 4.058594 -2.816406 L 3.429688 -3.433594 C 3.378906 -3.484375 3.316406 -3.511719 3.246094 -3.511719 L 0.316406 -3.511719 C 0.261719 -3.511719 0.210938 -3.464844 0.210938 -3.40625 L 0.210938 -0.105469 C 0.210938 -0.0507812 0.261719 0 0.316406 0 L 0.800781 0 C 0.855469 0 0.90625 -0.0507812 0.90625 -0.105469 L 0.90625 -0.773438 L 2.808594 -0.773438 L 3.246094 -0.0625 C 3.273438 -0.0195312 3.308594 0 3.351562 0 L 3.878906 0 C 3.960938 0 4.003906 -0.078125 3.960938 -0.148438 L 3.484375 -0.914062 L 4.058594 -1.488281 C 4.101562 -1.53125 4.144531 -1.601562 4.144531 -1.671875 L 4.144531 -2.605469 C 4.144531 -2.699219 4.117188 -2.761719 4.058594 -2.816406 Z M 0.90625 -2.832031 L 3.019531 -2.832031 C 3.070312 -2.832031 3.105469 -2.816406 3.140625 -2.78125 L 3.351562 -2.558594 L 3.386719 -2.515625 C 3.398438 -2.492188 3.40625 -2.472656 3.40625 -2.445312 L 3.40625 -1.855469 C 3.40625 -1.804688 3.394531 -1.769531 3.359375 -1.734375 L 3.132812 -1.523438 C 3.089844 -1.480469 3.0625 -1.46875 3.027344 -1.46875 L 0.90625 -1.46875 Z M 0.90625 -2.832031 "/></g></g></g><g fill="#f7f8fd" fill-opacity="1"><g transform="translate(56.816012, 78.601148)"><g/></g></g><g fill="#f7f8fd" fill-opacity="1"><g transform="translate(60.047397, 78.601148)"><g><path d="M 3.464844 -2.113281 L 3.933594 -2.113281 C 3.988281 -2.113281 4.039062 -2.164062 4.039062 -2.21875 L 4.039062 -2.648438 C 4.039062 -2.71875 4.011719 -2.78125 3.960938 -2.832031 L 3.34375 -3.464844 C 3.289062 -3.519531 3.222656 -3.546875 3.132812 -3.546875 L 1.132812 -3.546875 C 1.046875 -3.546875 0.992188 -3.527344 0.925781 -3.464844 L 0.296875 -2.832031 C 0.253906 -2.789062 0.210938 -2.71875 0.210938 -2.648438 L 0.210938 -0.863281 C 0.210938 -0.792969 0.253906 -0.722656 0.296875 -0.679688 L 0.925781 -0.0507812 C 0.992188 0.015625 1.046875 0.0351562 1.132812 0.0351562 L 3.132812 0.0351562 C 3.222656 0.0351562 3.289062 0.0078125 3.34375 -0.0507812 L 3.960938 -0.679688 C 4.011719 -0.730469 4.039062 -0.792969 4.039062 -0.863281 L 4.039062 -1.292969 C 4.039062 -1.347656 3.988281 -1.398438 3.933594 -1.398438 L 3.464844 -1.398438 C 3.40625 -1.398438 3.359375 -1.347656 3.359375 -1.292969 L 3.359375 -1.046875 C 3.359375 -0.996094 3.351562 -0.960938 3.308594 -0.925781 L 3.082031 -0.714844 C 3.046875 -0.679688 3.019531 -0.660156 2.972656 -0.660156 L 1.328125 -0.660156 C 1.292969 -0.660156 1.265625 -0.675781 1.222656 -0.714844 L 0.996094 -0.925781 C 0.960938 -0.960938 0.949219 -0.996094 0.949219 -1.046875 L 0.949219 -2.464844 C 0.949219 -2.515625 0.960938 -2.550781 0.996094 -2.585938 L 1.222656 -2.796875 C 1.265625 -2.835938 1.292969 -2.851562 1.328125 -2.851562 L 2.972656 -2.851562 C 3.019531 -2.851562 3.046875 -2.832031 3.082031 -2.796875 L 3.308594 -2.585938 C 3.351562 -2.550781 3.359375 -2.515625 3.359375 -2.464844 L 3.359375 -2.21875 C 3.359375 -2.164062 3.40625 -2.113281 3.464844 -2.113281 Z M 3.464844 -2.113281 "/></g></g></g><g fill="#f7f8fd" fill-opacity="1"><g transform="translate(65.701295, 78.601148)"><g><path d="M 0.210938 -0.898438 C 0.210938 -0.828125 0.238281 -0.765625 0.289062 -0.714844 L 0.90625 -0.0859375 C 0.960938 -0.0273438 1.027344 0 1.117188 0 L 3.132812 0 C 3.222656 0 3.289062 -0.0273438 3.34375 -0.0859375 L 3.960938 -0.714844 C 4.011719 -0.765625 4.039062 -0.828125 4.039062 -0.898438 L 4.039062 -2.613281 C 4.039062 -2.683594 4.011719 -2.746094 3.960938 -2.796875 L 3.34375 -3.429688 C 3.289062 -3.484375 3.222656 -3.511719 3.132812 -3.511719 L 1.117188 -3.511719 C 1.027344 -3.511719 0.960938 -3.484375 0.90625 -3.429688 L 0.289062 -2.796875 C 0.238281 -2.746094 0.210938 -2.683594 0.210938 -2.613281 Z M 0.890625 -1.082031 L 0.890625 -2.429688 C 0.890625 -2.480469 0.90625 -2.515625 0.941406 -2.550781 L 1.167969 -2.761719 L 1.207031 -2.796875 C 1.222656 -2.808594 1.242188 -2.816406 1.277344 -2.816406 L 2.972656 -2.816406 C 3 -2.816406 3.019531 -2.808594 3.042969 -2.796875 L 3.082031 -2.761719 L 3.308594 -2.550781 C 3.34375 -2.515625 3.359375 -2.480469 3.359375 -2.429688 L 3.359375 -1.082031 C 3.359375 -1.03125 3.34375 -0.996094 3.308594 -0.960938 L 3.082031 -0.75 L 3.042969 -0.714844 C 3.019531 -0.703125 3 -0.695312 2.972656 -0.695312 L 1.277344 -0.695312 C 1.242188 -0.695312 1.222656 -0.703125 1.207031 -0.714844 L 1.167969 -0.75 L 0.941406 -0.960938 C 0.90625 -0.996094 0.890625 -1.03125 0.890625 -1.082031 Z M 0.890625 -1.082031 "/></g></g></g><g fill="#f7f8fd" fill-opacity="1"><g transform="translate(71.355194, 78.601148)"><g><path d="M 7.171875 -2.726562 L 6.484375 -3.429688 C 6.425781 -3.484375 6.363281 -3.511719 6.273438 -3.511719 L 4.453125 -3.511719 C 4.363281 -3.511719 4.292969 -3.484375 4.242188 -3.429688 L 3.820312 -2.992188 L 3.394531 -3.429688 C 3.34375 -3.484375 3.273438 -3.511719 3.183594 -3.511719 L 1.1875 -3.511719 C 1.097656 -3.511719 1.03125 -3.484375 0.976562 -3.429688 L 0.289062 -2.726562 C 0.246094 -2.675781 0.210938 -2.613281 0.210938 -2.542969 L 0.210938 -0.105469 C 0.210938 -0.0507812 0.261719 0 0.316406 0 L 0.785156 0 C 0.84375 0 0.890625 -0.0507812 0.890625 -0.105469 L 0.890625 -2.324219 C 0.890625 -2.375 0.90625 -2.410156 0.941406 -2.445312 L 1.300781 -2.796875 C 1.320312 -2.808594 1.339844 -2.816406 1.371094 -2.816406 L 3.019531 -2.816406 C 3.046875 -2.816406 3.070312 -2.808594 3.089844 -2.796875 L 3.429688 -2.480469 C 3.464844 -2.453125 3.476562 -2.410156 3.476562 -2.359375 L 3.476562 -0.105469 C 3.476562 -0.0507812 3.527344 0 3.582031 0 L 4.054688 0 C 4.109375 0 4.160156 -0.0507812 4.160156 -0.105469 L 4.160156 -2.359375 C 4.160156 -2.410156 4.171875 -2.453125 4.207031 -2.480469 L 4.542969 -2.796875 C 4.566406 -2.808594 4.585938 -2.816406 4.613281 -2.816406 L 6.097656 -2.816406 C 6.125 -2.816406 6.144531 -2.808594 6.167969 -2.796875 L 6.519531 -2.453125 C 6.554688 -2.421875 6.566406 -2.382812 6.566406 -2.332031 L 6.566406 -0.105469 C 6.566406 -0.0507812 6.617188 0 6.671875 0 L 7.144531 0 C 7.199219 0 7.25 -0.0507812 7.25 -0.105469 L 7.25 -2.542969 C 7.25 -2.613281 7.214844 -2.675781 7.171875 -2.726562 Z M 7.171875 -2.726562 "/></g></g></g><g fill="#f7f8fd" fill-opacity="1"><g transform="translate(80.218042, 78.601148)"><g><path d="M 7.171875 -2.726562 L 6.484375 -3.429688 C 6.425781 -3.484375 6.363281 -3.511719 6.273438 -3.511719 L 4.453125 -3.511719 C 4.363281 -3.511719 4.292969 -3.484375 4.242188 -3.429688 L 3.820312 -2.992188 L 3.394531 -3.429688 C 3.34375 -3.484375 3.273438 -3.511719 3.183594 -3.511719 L 1.1875 -3.511719 C 1.097656 -3.511719 1.03125 -3.484375 0.976562 -3.429688 L 0.289062 -2.726562 C 0.246094 -2.675781 0.210938 -2.613281 0.210938 -2.542969 L 0.210938 -0.105469 C 0.210938 -0.0507812 0.261719 0 0.316406 0 L 0.785156 0 C 0.84375 0 0.890625 -0.0507812 0.890625 -0.105469 L 0.890625 -2.324219 C 0.890625 -2.375 0.90625 -2.410156 0.941406 -2.445312 L 1.300781 -2.796875 C 1.320312 -2.808594 1.339844 -2.816406 1.371094 -2.816406 L 3.019531 -2.816406 C 3.046875 -2.816406 3.070312 -2.808594 3.089844 -2.796875 L 3.429688 -2.480469 C 3.464844 -2.453125 3.476562 -2.410156 3.476562 -2.359375 L 3.476562 -0.105469 C 3.476562 -0.0507812 3.527344 0 3.582031 0 L 4.054688 0 C 4.109375 0 4.160156 -0.0507812 4.160156 -0.105469 L 4.160156 -2.359375 C 4.160156 -2.410156 4.171875 -2.453125 4.207031 -2.480469 L 4.542969 -2.796875 C 4.566406 -2.808594 4.585938 -2.816406 4.613281 -2.816406 L 6.097656 -2.816406 C 6.125 -2.816406 6.144531 -2.808594 6.167969 -2.796875 L 6.519531 -2.453125 C 6.554688 -2.421875 6.566406 -2.382812 6.566406 -2.332031 L 6.566406 -0.105469 C 6.566406 -0.0507812 6.617188 0 6.671875 0 L 7.144531 0 C 7.199219 0 7.25 -0.0507812 7.25 -0.105469 L 7.25 -2.542969 C 7.25 -2.613281 7.214844 -2.675781 7.171875 -2.726562 Z M 7.171875 -2.726562 "/></g></g></g><g fill="#f7f8fd" fill-opacity="1"><g transform="translate(89.08089, 78.601148)"><g><path d="M 0.996094 -2.550781 L 1.222656 -2.761719 C 1.265625 -2.800781 1.292969 -2.816406 1.328125 -2.816406 L 3.863281 -2.816406 C 3.917969 -2.816406 3.96875 -2.867188 3.96875 -2.921875 L 3.96875 -3.40625 C 3.96875 -3.464844 3.917969 -3.511719 3.863281 -3.511719 L 1.097656 -3.511719 C 1.011719 -3.511719 0.957031 -3.492188 0.890625 -3.429688 L 0.296875 -2.832031 C 0.253906 -2.789062 0.210938 -2.71875 0.210938 -2.648438 L 0.210938 -0.871094 C 0.210938 -0.78125 0.238281 -0.714844 0.296875 -0.660156 L 0.890625 -0.078125 C 0.941406 -0.0273438 1.003906 0 1.074219 0 L 3.863281 0 C 3.917969 0 3.96875 -0.0507812 3.96875 -0.105469 L 3.96875 -0.574219 C 3.96875 -0.632812 3.917969 -0.679688 3.863281 -0.679688 L 1.335938 -0.679688 C 1.285156 -0.679688 1.25 -0.695312 1.214844 -0.730469 L 0.96875 -0.996094 C 0.957031 -1.019531 0.949219 -1.039062 0.949219 -1.066406 L 0.949219 -1.433594 L 3.519531 -1.433594 C 3.574219 -1.433594 3.625 -1.480469 3.625 -1.539062 L 3.625 -2.023438 C 3.625 -2.078125 3.574219 -2.128906 3.519531 -2.128906 L 0.949219 -2.128906 L 0.949219 -2.429688 C 0.949219 -2.480469 0.960938 -2.515625 0.996094 -2.550781 Z M 0.996094 -2.550781 "/></g></g></g><g fill="#f7f8fd" fill-opacity="1"><g transform="translate(94.664567, 78.601148)"><g><path d="M 4.058594 -2.816406 L 3.429688 -3.433594 C 3.378906 -3.484375 3.316406 -3.511719 3.246094 -3.511719 L 0.316406 -3.511719 C 0.261719 -3.511719 0.210938 -3.464844 0.210938 -3.40625 L 0.210938 -0.105469 C 0.210938 -0.0507812 0.261719 0 0.316406 0 L 0.800781 0 C 0.855469 0 0.90625 -0.0507812 0.90625 -0.105469 L 0.90625 -0.773438 L 2.808594 -0.773438 L 3.246094 -0.0625 C 3.273438 -0.0195312 3.308594 0 3.351562 0 L 3.878906 0 C 3.960938 0 4.003906 -0.078125 3.960938 -0.148438 L 3.484375 -0.914062 L 4.058594 -1.488281 C 4.101562 -1.53125 4.144531 -1.601562 4.144531 -1.671875 L 4.144531 -2.605469 C 4.144531 -2.699219 4.117188 -2.761719 4.058594 -2.816406 Z M 0.90625 -2.832031 L 3.019531 -2.832031 C 3.070312 -2.832031 3.105469 -2.816406 3.140625 -2.78125 L 3.351562 -2.558594 L 3.386719 -2.515625 C 3.398438 -2.492188 3.40625 -2.472656 3.40625 -2.445312 L 3.40625 -1.855469 C 3.40625 -1.804688 3.394531 -1.769531 3.359375 -1.734375 L 3.132812 -1.523438 C 3.089844 -1.480469 3.0625 -1.46875 3.027344 -1.46875 L 0.90625 -1.46875 Z M 0.90625 -2.832031 "/></g></g></g><g fill="#f7f8fd" fill-opacity="1"><g transform="translate(100.423787, 78.601148)"><g><path d="M 3.464844 -2.113281 L 3.933594 -2.113281 C 3.988281 -2.113281 4.039062 -2.164062 4.039062 -2.21875 L 4.039062 -2.648438 C 4.039062 -2.71875 4.011719 -2.78125 3.960938 -2.832031 L 3.34375 -3.464844 C 3.289062 -3.519531 3.222656 -3.546875 3.132812 -3.546875 L 1.132812 -3.546875 C 1.046875 -3.546875 0.992188 -3.527344 0.925781 -3.464844 L 0.296875 -2.832031 C 0.253906 -2.789062 0.210938 -2.71875 0.210938 -2.648438 L 0.210938 -0.863281 C 0.210938 -0.792969 0.253906 -0.722656 0.296875 -0.679688 L 0.925781 -0.0507812 C 0.992188 0.015625 1.046875 0.0351562 1.132812 0.0351562 L 3.132812 0.0351562 C 3.222656 0.0351562 3.289062 0.0078125 3.34375 -0.0507812 L 3.960938 -0.679688 C 4.011719 -0.730469 4.039062 -0.792969 4.039062 -0.863281 L 4.039062 -1.292969 C 4.039062 -1.347656 3.988281 -1.398438 3.933594 -1.398438 L 3.464844 -1.398438 C 3.40625 -1.398438 3.359375 -1.347656 3.359375 -1.292969 L 3.359375 -1.046875 C 3.359375 -0.996094 3.351562 -0.960938 3.308594 -0.925781 L 3.082031 -0.714844 C 3.046875 -0.679688 3.019531 -0.660156 2.972656 -0.660156 L 1.328125 -0.660156 C 1.292969 -0.660156 1.265625 -0.675781 1.222656 -0.714844 L 0.996094 -0.925781 C 0.960938 -0.960938 0.949219 -0.996094 0.949219 -1.046875 L 0.949219 -2.464844 C 0.949219 -2.515625 0.960938 -2.550781 0.996094 -2.585938 L 1.222656 -2.796875 C 1.265625 -2.835938 1.292969 -2.851562 1.328125 -2.851562 L 2.972656 -2.851562 C 3.019531 -2.851562 3.046875 -2.832031 3.082031 -2.796875 L 3.308594 -2.585938 C 3.351562 -2.550781 3.359375 -2.515625 3.359375 -2.464844 L 3.359375 -2.21875 C 3.359375 -2.164062 3.40625 -2.113281 3.464844 -2.113281 Z M 3.464844 -2.113281 "/></g></g></g><g fill="#f7f8fd" fill-opacity="1"><g transform="translate(106.077685, 78.601148)"><g><path d="M 0.996094 -2.550781 L 1.222656 -2.761719 C 1.265625 -2.800781 1.292969 -2.816406 1.328125 -2.816406 L 3.863281 -2.816406 C 3.917969 -2.816406 3.96875 -2.867188 3.96875 -2.921875 L 3.96875 -3.40625 C 3.96875 -3.464844 3.917969 -3.511719 3.863281 -3.511719 L 1.097656 -3.511719 C 1.011719 -3.511719 0.957031 -3.492188 0.890625 -3.429688 L 0.296875 -2.832031 C 0.253906 -2.789062 0.210938 -2.71875 0.210938 -2.648438 L 0.210938 -0.871094 C 0.210938 -0.78125 0.238281 -0.714844 0.296875 -0.660156 L 0.890625 -0.078125 C 0.941406 -0.0273438 1.003906 0 1.074219 0 L 3.863281 0 C 3.917969 0 3.96875 -0.0507812 3.96875 -0.105469 L 3.96875 -0.574219 C 3.96875 -0.632812 3.917969 -0.679688 3.863281 -0.679688 L 1.335938 -0.679688 C 1.285156 -0.679688 1.25 -0.695312 1.214844 -0.730469 L 0.96875 -0.996094 C 0.957031 -1.019531 0.949219 -1.039062 0.949219 -1.066406 L 0.949219 -1.433594 L 3.519531 -1.433594 C 3.574219 -1.433594 3.625 -1.480469 3.625 -1.539062 L 3.625 -2.023438 C 3.625 -2.078125 3.574219 -2.128906 3.519531 -2.128906 L 0.949219 -2.128906 L 0.949219 -2.429688 C 0.949219 -2.480469 0.960938 -2.515625 0.996094 -2.550781 Z M 0.996094 -2.550781 "/></g></g></g><path fill="#e34234" d="M 31.085938 46.632812 C 30.421875 47.027344 29.78125 47.457031 29.164062 47.925781 C 29.007812 48.042969 28.855469 48.167969 28.703125 48.292969 C 28.628906 48.355469 28.554688 48.421875 28.480469 48.484375 C 28.40625 48.546875 28.332031 48.617188 28.261719 48.683594 C 28.191406 48.753906 28.117188 48.820312 28.046875 48.894531 C 27.980469 48.96875 27.910156 49.042969 27.84375 49.121094 L 27.648438 49.363281 L 27.574219 49.472656 L 27.558594 49.472656 C 27.480469 49.476562 27.40625 49.484375 27.332031 49.492188 C 27.183594 49.511719 27.035156 49.535156 26.890625 49.578125 C 26.816406 49.597656 26.742188 49.621094 26.671875 49.648438 C 26.597656 49.671875 26.527344 49.707031 26.460938 49.742188 C 26.425781 49.757812 26.390625 49.78125 26.359375 49.800781 C 26.324219 49.820312 26.292969 49.84375 26.261719 49.871094 C 26.230469 49.894531 26.199219 49.917969 26.171875 49.949219 L 26.089844 50.035156 C 26.054688 50.074219 26.046875 50.132812 26.078125 50.175781 C 26.113281 50.230469 26.183594 50.25 26.238281 50.214844 L 26.253906 50.199219 L 26.332031 50.152344 C 26.355469 50.136719 26.386719 50.125 26.410156 50.113281 C 26.4375 50.097656 26.464844 50.089844 26.496094 50.078125 C 26.527344 50.070312 26.550781 50.058594 26.582031 50.054688 C 26.644531 50.039062 26.703125 50.027344 26.765625 50.019531 C 26.828125 50.011719 26.890625 50.007812 26.953125 50.007812 C 27.082031 50.003906 27.210938 50.011719 27.335938 50.027344 C 27.402344 50.035156 27.464844 50.046875 27.527344 50.058594 L 27.621094 50.074219 C 27.648438 50.082031 27.683594 50.089844 27.707031 50.097656 L 27.730469 50.097656 C 27.851562 50.101562 27.96875 50.039062 28.027344 49.925781 L 28.148438 49.707031 L 28.296875 49.488281 C 28.347656 49.414062 28.40625 49.34375 28.464844 49.273438 C 28.519531 49.199219 28.582031 49.132812 28.644531 49.0625 C 28.703125 48.992188 28.765625 48.925781 28.832031 48.859375 C 28.898438 48.792969 28.960938 48.722656 29.03125 48.65625 C 29.164062 48.527344 29.300781 48.394531 29.441406 48.269531 C 30.003906 47.761719 30.605469 47.285156 31.222656 46.84375 L 31.222656 46.839844 C 31.273438 46.804688 31.292969 46.730469 31.257812 46.675781 C 31.222656 46.613281 31.144531 46.59375 31.085938 46.632812 " fill-opacity="1" fill-rule="nonzero"/><path fill="#e34234" d="M 27.652344 48.707031 L 27.664062 48.695312 C 27.664062 48.695312 27.683594 48.683594 27.707031 48.660156 C 27.734375 48.636719 27.777344 48.601562 27.828125 48.5625 C 27.933594 48.484375 28.074219 48.378906 28.210938 48.273438 C 28.28125 48.214844 28.351562 48.160156 28.417969 48.105469 C 28.484375 48.054688 28.542969 48 28.59375 47.957031 C 28.695312 47.863281 28.757812 47.792969 28.757812 47.792969 C 28.773438 47.769531 28.78125 47.742188 28.773438 47.714844 C 28.761719 47.667969 28.71875 47.644531 28.671875 47.65625 C 28.671875 47.65625 28.578125 47.679688 28.453125 47.742188 C 28.324219 47.800781 28.164062 47.894531 28.011719 48.011719 C 27.941406 48.070312 27.867188 48.132812 27.804688 48.195312 C 27.742188 48.261719 27.683594 48.328125 27.644531 48.390625 C 27.597656 48.449219 27.570312 48.507812 27.550781 48.550781 C 27.535156 48.59375 27.527344 48.621094 27.527344 48.621094 C 27.523438 48.644531 27.527344 48.671875 27.542969 48.691406 C 27.566406 48.726562 27.617188 48.730469 27.652344 48.707031 " fill-opacity="1" fill-rule="nonzero"/><path fill="#e34234" d="M 125.691406 44.617188 L 125.6875 44.617188 C 125.6875 44.617188 125.519531 44.601562 125.226562 44.578125 C 125.078125 44.566406 124.902344 44.546875 124.699219 44.53125 C 124.496094 44.511719 124.265625 44.484375 124.015625 44.453125 C 123.769531 44.421875 123.5 44.382812 123.214844 44.335938 C 122.933594 44.289062 122.636719 44.234375 122.332031 44.171875 C 122.027344 44.105469 121.714844 44.027344 121.402344 43.941406 C 121.328125 43.917969 121.246094 43.894531 121.167969 43.871094 C 121.125 43.855469 121.085938 43.835938 121.054688 43.808594 C 120.996094 43.757812 120.964844 43.675781 120.972656 43.601562 C 120.972656 43.5625 120.988281 43.527344 121.007812 43.496094 C 121.015625 43.480469 121.035156 43.464844 121.042969 43.453125 C 121.046875 43.449219 121.050781 43.449219 121.054688 43.441406 C 121.054688 43.4375 121.085938 43.421875 121.101562 43.414062 L 121.121094 43.398438 L 121.136719 43.394531 L 121.191406 43.367188 L 121.296875 43.316406 C 121.371094 43.285156 121.445312 43.253906 121.519531 43.222656 C 121.816406 43.101562 122.121094 42.996094 122.417969 42.898438 C 122.714844 42.808594 123.003906 42.71875 123.28125 42.640625 C 123.5625 42.566406 123.824219 42.496094 124.070312 42.433594 C 124.558594 42.308594 124.96875 42.207031 125.253906 42.136719 C 125.542969 42.070312 125.707031 42.03125 125.707031 42.03125 C 125.761719 42.015625 125.804688 41.960938 125.800781 41.902344 C 125.792969 41.835938 125.734375 41.78125 125.667969 41.789062 C 125.667969 41.789062 125.496094 41.800781 125.203125 41.832031 C 124.90625 41.867188 124.484375 41.921875 123.980469 42.007812 C 123.726562 42.050781 123.453125 42.101562 123.167969 42.164062 C 122.878906 42.226562 122.578125 42.296875 122.265625 42.382812 C 121.957031 42.476562 121.632812 42.566406 121.3125 42.695312 C 121.230469 42.722656 121.148438 42.757812 121.070312 42.792969 L 120.886719 42.875 L 120.871094 42.882812 L 120.867188 42.882812 L 120.84375 42.894531 L 120.839844 42.898438 L 120.8125 42.914062 C 120.789062 42.929688 120.78125 42.929688 120.75 42.953125 C 120.71875 42.976562 120.691406 43 120.664062 43.023438 C 120.613281 43.070312 120.566406 43.113281 120.53125 43.171875 C 120.457031 43.28125 120.410156 43.410156 120.398438 43.542969 C 120.367188 43.808594 120.480469 44.078125 120.675781 44.246094 C 120.773438 44.332031 120.890625 44.386719 121.003906 44.425781 C 121.085938 44.449219 121.167969 44.472656 121.25 44.496094 C 121.582031 44.585938 121.910156 44.652344 122.226562 44.710938 C 122.863281 44.824219 123.464844 44.882812 123.976562 44.90625 C 124.234375 44.917969 124.46875 44.921875 124.679688 44.921875 C 124.886719 44.925781 125.070312 44.917969 125.21875 44.914062 C 125.367188 44.90625 125.484375 44.898438 125.566406 44.894531 C 125.644531 44.886719 125.6875 44.886719 125.6875 44.886719 C 125.753906 44.882812 125.808594 44.828125 125.8125 44.761719 C 125.820312 44.6875 125.765625 44.625 125.691406 44.617188 " fill-opacity="1" fill-rule="nonzero"/><path fill="#e34234" d="M 123.402344 43.277344 C 123.394531 43.277344 123.390625 43.277344 123.386719 43.277344 C 123.28125 43.28125 123.199219 43.367188 123.203125 43.476562 C 123.207031 43.582031 123.296875 43.664062 123.402344 43.660156 L 125.515625 43.582031 C 125.574219 43.582031 125.621094 43.53125 125.625 43.472656 C 125.628906 43.410156 125.578125 43.355469 125.515625 43.351562 L 123.402344 43.277344 " fill-opacity="1" fill-rule="nonzero"/><path fill="#ffffff" d="M 115.300781 49.222656 C 113.613281 46.363281 110.515625 44.585938 107.21875 44.585938 C 103.917969 44.585938 100.820312 46.363281 99.132812 49.222656 C 99.074219 49.324219 99.101562 49.453125 99.199219 49.519531 C 99.300781 49.585938 99.429688 49.566406 99.5 49.46875 C 101.273438 47.085938 104.300781 45.542969 107.21875 45.542969 C 110.132812 45.542969 113.164062 47.085938 114.933594 49.46875 C 114.976562 49.527344 115.042969 49.558594 115.109375 49.558594 C 115.152344 49.558594 115.195312 49.546875 115.234375 49.519531 C 115.332031 49.453125 115.359375 49.324219 115.300781 49.222656 " fill-opacity="1" fill-rule="nonzero"/><g clip-path="url(#fc27a3ab09)"><path fill="#ffffff" d="M 60.441406 41.203125 L 59.804688 41.203125 C 59.660156 41.203125 59.597656 41.023438 59.710938 40.933594 C 59.949219 40.742188 60.234375 40.515625 60.289062 40.46875 C 60.386719 40.394531 60.535156 40.285156 60.726562 40.136719 C 61.109375 39.851562 61.675781 39.441406 62.417969 38.941406 C 63.890625 37.941406 66.050781 36.582031 68.792969 35.226562 C 70.164062 34.554688 71.6875 33.886719 73.339844 33.292969 C 74.992188 32.703125 76.78125 32.191406 78.675781 31.855469 C 79.152344 31.777344 79.628906 31.695312 80.117188 31.644531 C 80.601562 31.578125 81.097656 31.550781 81.589844 31.511719 C 81.839844 31.492188 82.089844 31.492188 82.339844 31.484375 L 82.714844 31.472656 L 82.816406 31.472656 L 82.910156 31.476562 L 83.09375 31.476562 C 83.585938 31.484375 84.082031 31.492188 84.578125 31.496094 C 85.566406 31.496094 86.578125 31.5625 87.589844 31.613281 C 88.605469 31.648438 89.613281 31.75 90.625 31.824219 C 92.644531 31.996094 94.660156 32.234375 96.632812 32.511719 C 98.609375 32.789062 100.546875 33.109375 102.414062 33.457031 C 104.28125 33.804688 106.082031 34.179688 107.78125 34.570312 C 108.632812 34.753906 109.453125 34.972656 110.25 35.164062 C 111.046875 35.355469 111.8125 35.570312 112.546875 35.765625 C 113.28125 35.960938 113.980469 36.171875 114.648438 36.367188 C 114.980469 36.464844 115.304688 36.5625 115.621094 36.65625 C 115.933594 36.757812 116.238281 36.855469 116.535156 36.953125 C 117.125 37.140625 117.675781 37.316406 118.183594 37.507812 C 118.464844 37.609375 118.734375 37.703125 118.988281 37.792969 C 119.011719 37.800781 119.003906 37.835938 118.980469 37.835938 C 108.035156 37.5625 101.933594 38.488281 99.351562 39.039062 C 99.320312 39.046875 99.304688 39.003906 99.332031 38.988281 C 99.730469 38.746094 100.105469 38.449219 100.441406 38.109375 L 102.339844 36.199219 C 102.425781 36.109375 102.480469 35.992188 102.476562 35.871094 C 102.476562 35.671875 102.347656 35.511719 102.171875 35.457031 C 100.902344 35.078125 98.296875 34.324219 95.46875 33.675781 C 93.851562 33.304688 92.207031 33.050781 90.554688 32.894531 L 90.53125 32.894531 C 89.53125 32.808594 88.53125 32.699219 87.535156 32.652344 C 86.542969 32.597656 85.554688 32.523438 84.558594 32.515625 C 84.0625 32.503906 83.566406 32.492188 83.074219 32.480469 L 82.890625 32.476562 L 82.800781 32.476562 L 82.761719 32.472656 L 82.71875 32.476562 L 82.359375 32.480469 C 82.121094 32.488281 81.882812 32.484375 81.644531 32.5 C 81.167969 32.535156 80.695312 32.554688 80.226562 32.617188 C 79.757812 32.660156 79.296875 32.738281 78.835938 32.808594 C 77.003906 33.113281 75.257812 33.597656 73.636719 34.15625 C 72.019531 34.726562 70.523438 35.363281 69.167969 36.011719 C 66.464844 37.320312 64.320312 38.640625 62.859375 39.613281 C 62.128906 40.101562 61.566406 40.5 61.1875 40.777344 C 61 40.917969 60.859375 41.023438 60.761719 41.09375 C 60.761719 41.09375 60.757812 41.09375 60.757812 41.097656 C 60.667969 41.167969 60.554688 41.203125 60.441406 41.203125 " fill-opacity="1" fill-rule="nonzero"/></g><g clip-path="url(#1dde4e62c3)"><path fill="#ffffff" d="M 126.199219 39.347656 C 126.28125 39.734375 126.027344 40.113281 125.640625 40.175781 L 125.636719 40.179688 C 125.484375 40.195312 125.3125 40.214844 125.117188 40.238281 C 124.332031 40.332031 123.210938 40.410156 121.78125 40.507812 C 120.351562 40.589844 118.617188 40.683594 116.632812 40.769531 C 114.652344 40.847656 112.410156 40.9375 109.96875 41.03125 C 105.089844 41.210938 99.394531 41.378906 93.292969 41.546875 C 87.1875 41.703125 80.683594 41.867188 74.175781 42.035156 C 67.667969 42.207031 61.160156 42.386719 55.058594 42.546875 C 52.011719 42.636719 49.0625 42.722656 46.269531 42.820312 C 44.867188 42.863281 43.527344 42.9375 42.222656 43.042969 C 40.925781 43.167969 39.671875 43.304688 38.480469 43.507812 C 38.332031 43.535156 38.183594 43.554688 38.035156 43.578125 C 37.886719 43.605469 37.742188 43.636719 37.597656 43.660156 C 37.308594 43.71875 37.019531 43.773438 36.734375 43.828125 C 36.171875 43.953125 35.621094 44.066406 35.089844 44.210938 C 34.554688 44.34375 34.046875 44.5 33.546875 44.644531 C 33.054688 44.808594 32.570312 44.960938 32.117188 45.136719 C 30.285156 45.8125 28.78125 46.625 27.648438 47.417969 C 26.507812 48.210938 25.75 48.996094 25.300781 49.566406 C 25.078125 49.847656 24.929688 50.078125 24.839844 50.230469 C 24.792969 50.308594 24.761719 50.367188 24.746094 50.402344 C 24.726562 50.4375 24.71875 50.453125 24.71875 50.453125 L 23.914062 50.089844 C 23.914062 50.089844 23.929688 50.0625 23.957031 50.003906 C 23.984375 49.949219 24.023438 49.875 24.078125 49.78125 C 24.1875 49.59375 24.359375 49.328125 24.613281 49.011719 C 25.109375 48.375 25.933594 47.527344 27.140625 46.6875 C 28.34375 45.84375 29.914062 45 31.808594 44.300781 C 32.277344 44.117188 32.773438 43.960938 33.28125 43.792969 C 33.796875 43.640625 34.320312 43.476562 34.867188 43.34375 C 35.410156 43.195312 35.976562 43.078125 36.554688 42.945312 C 36.84375 42.886719 37.136719 42.828125 37.433594 42.769531 C 37.578125 42.742188 37.730469 42.714844 37.878906 42.683594 C 38.03125 42.660156 38.179688 42.632812 38.332031 42.609375 C 39.550781 42.394531 40.824219 42.25 42.144531 42.117188 C 43.460938 42 44.835938 41.917969 46.234375 41.867188 C 49.03125 41.753906 51.976562 41.648438 55.027344 41.542969 C 61.128906 41.34375 67.632812 41.132812 74.140625 40.921875 C 77.394531 40.816406 80.648438 40.695312 83.847656 40.582031 C 87.050781 40.460938 90.199219 40.347656 93.25 40.234375 L 93.257812 40.234375 C 93.945312 40.207031 94.628906 40.140625 95.304688 40.035156 L 97.253906 39.734375 C 97.621094 39.679688 97.976562 39.589844 98.320312 39.464844 C 98.40625 39.433594 98.496094 39.417969 98.589844 39.414062 C 101.335938 39.40625 111.296875 39.332031 121.535156 38.84375 C 121.578125 38.839844 121.621094 38.839844 121.664062 38.835938 C 123.074219 38.71875 124.179688 38.617188 124.910156 38.519531 C 125.09375 38.496094 125.253906 38.472656 125.394531 38.457031 C 125.523438 38.433594 125.632812 38.414062 125.722656 38.398438 C 125.722656 38.398438 125.726562 38.394531 125.726562 38.394531 C 125.875 38.371094 126.011719 38.464844 126.042969 38.613281 L 126.199219 39.347656 " fill-opacity="1" fill-rule="nonzero"/></g><path fill="#ffffff" d="M 68.234375 40.242188 C 68.324219 40.082031 68.359375 39.886719 68.339844 39.691406 C 68.3125 39.453125 68.242188 39.242188 68.125 39.0625 C 67.964844 38.816406 67.679688 38.671875 67.382812 38.691406 C 65.949219 38.765625 65.359375 39.347656 65.136719 39.6875 C 65.058594 39.800781 65.050781 39.941406 65.105469 40.066406 L 65.332031 40.5625 C 65.433594 40.777344 65.695312 40.949219 65.933594 40.949219 L 66.261719 40.949219 C 66.304688 40.949219 66.347656 40.921875 66.363281 40.878906 C 66.378906 40.839844 66.371094 40.792969 66.347656 40.769531 L 66.222656 40.585938 L 67.660156 40.585938 C 67.910156 40.585938 68.105469 40.46875 68.234375 40.242188 " fill-opacity="1" fill-rule="nonzero"/><path fill="#ffffff" d="M 47.664062 49.601562 C 46.039062 46.84375 43.050781 45.132812 39.871094 45.132812 C 36.691406 45.132812 33.703125 46.84375 32.074219 49.601562 C 32.015625 49.703125 32.042969 49.832031 32.140625 49.898438 C 32.238281 49.964844 32.367188 49.941406 32.4375 49.847656 C 34.144531 47.550781 37.0625 46.066406 39.871094 46.066406 C 42.679688 46.066406 45.597656 47.550781 47.304688 49.847656 C 47.347656 49.90625 47.410156 49.9375 47.476562 49.9375 C 47.519531 49.9375 47.5625 49.921875 47.597656 49.898438 C 47.695312 49.832031 47.726562 49.703125 47.664062 49.601562 " fill-opacity="1" fill-rule="nonzero"/><g clip-path="url(#ae2e4d978a)"><path fill="#ffffff" d="M 95.101562 42.820312 C 94.648438 43.0625 94.113281 43.390625 93.539062 43.820312 C 92.964844 44.253906 92.34375 44.785156 91.746094 45.445312 C 91.140625 46.097656 90.566406 46.882812 89.980469 47.695312 C 89.6875 48.105469 89.375 48.515625 89.042969 48.917969 C 88.703125 49.316406 88.335938 49.695312 87.921875 50.03125 C 87.507812 50.363281 87.035156 50.628906 86.53125 50.84375 C 86.402344 50.894531 86.273438 50.941406 86.148438 50.992188 C 86.019531 51.042969 85.882812 51.074219 85.75 51.117188 C 85.484375 51.203125 85.207031 51.257812 84.933594 51.324219 C 83.824219 51.5625 82.667969 51.660156 81.503906 51.722656 C 80.335938 51.800781 79.167969 51.875 78.019531 51.949219 C 76.871094 52.027344 75.742188 52.105469 74.648438 52.179688 C 72.460938 52.332031 70.417969 52.484375 68.671875 52.625 C 66.921875 52.761719 65.464844 52.894531 64.445312 52.976562 C 63.425781 53.070312 62.84375 53.121094 62.84375 53.121094 C 62.84375 53.121094 63.429688 53.101562 64.453125 53.066406 C 65.472656 53.023438 66.933594 52.972656 68.6875 52.890625 C 70.441406 52.808594 72.484375 52.707031 74.671875 52.585938 C 75.769531 52.523438 76.898438 52.460938 78.050781 52.394531 C 79.199219 52.324219 80.367188 52.253906 81.53125 52.183594 C 82.699219 52.113281 83.882812 52.011719 85.027344 51.757812 C 85.3125 51.691406 85.597656 51.632812 85.875 51.539062 C 86.015625 51.492188 86.15625 51.457031 86.292969 51.402344 C 86.425781 51.347656 86.5625 51.292969 86.695312 51.238281 C 87.226562 51 87.734375 50.710938 88.171875 50.347656 C 88.609375 49.984375 88.992188 49.578125 89.332031 49.160156 C 89.664062 48.738281 89.972656 48.316406 90.257812 47.898438 C 90.832031 47.058594 91.363281 46.28125 91.941406 45.621094 C 92.507812 44.957031 93.09375 44.410156 93.640625 43.957031 C 94.191406 43.503906 94.703125 43.15625 95.144531 42.898438 C 95.585938 42.640625 95.949219 42.464844 96.199219 42.355469 C 96.449219 42.246094 96.589844 42.203125 96.589844 42.203125 C 96.589844 42.203125 96.449219 42.238281 96.191406 42.332031 C 95.933594 42.429688 95.554688 42.574219 95.101562 42.820312 " fill-opacity="1" fill-rule="nonzero"/></g><path fill="#ffffff" d="M 91.214844 39.765625 C 91.445312 39.765625 91.648438 39.621094 91.722656 39.398438 L 93.550781 33.839844 C 93.554688 33.820312 93.554688 33.796875 93.542969 33.777344 C 93.53125 33.757812 93.511719 33.742188 93.488281 33.738281 L 93.277344 33.710938 C 93.105469 33.683594 92.9375 33.785156 92.878906 33.945312 L 90.75 39.664062 C 90.742188 39.6875 90.746094 39.714844 90.761719 39.734375 C 90.773438 39.753906 90.796875 39.765625 90.824219 39.765625 L 91.214844 39.765625 " fill-opacity="1" fill-rule="nonzero"/></svg>